<svg width="38" height="37" viewBox="0 0 38 37" fill="none" xmlns="http://www.w3.org/2000/svg">
<rect x="0.5" width="37" height="37" rx="18.5" fill="#FAE3AA"/>
<path d="M25.7316 15.83L25.7322 15.8301C26.6379 15.9695 26.9948 17.0709 26.3638 17.7191L26.3636 17.7194L23.4768 20.6828L24.1605 24.8807L24.1606 24.8811L23.4876 24.9907C23.5471 25.3547 23.1592 25.6199 22.8442 25.4446L25.7316 15.83ZM25.7316 15.83L21.7875 15.2267L25.7316 15.83ZM22.5127 26.0404C22.5129 26.0406 22.5131 26.0407 22.5133 26.0408L12.3717 16.504C12.0182 16.5583 11.877 16.9889 12.1249 17.243L11.6365 17.7188L11.6368 17.719C11.6368 17.7191 11.6368 17.7191 11.6369 17.7191L14.5234 20.6822L13.8396 24.8801C13.8396 24.8802 13.8396 24.8802 13.8396 24.8803C13.8396 24.8803 13.8396 24.8804 13.8395 24.8805C13.6896 25.7999 14.6678 26.495 15.4864 26.0404C15.4868 26.0402 15.4872 26.04 15.4876 26.0398L19 24.0957L22.5127 26.0404Z" fill="#F2BC35" stroke="white" stroke-width="1.36364"/>
<path d="M21.3248 15.8456L25.6286 16.504C25.9815 16.5583 26.1233 16.9889 25.8753 17.2436L22.7487 20.4532L23.4878 24.9907C23.5473 25.3547 23.1593 25.6199 22.8443 25.4446L19.0002 23.3164L15.156 25.444C14.8381 25.6211 14.4537 25.3506 14.5126 24.9901L21.3248 15.8456Z" fill="#E7A912"/>
</svg>
